<svg id="Layer_1" data-name="Layer 1" xmlns="http://www.w3.org/2000/svg" viewBox="0 0 118.3 59.24"><defs><style>.cls-1{fill:#ea2046;}.cls-2{fill:#33140d;}.cls-3{isolation:isolate;}</style></defs><title>lb brand book-15</title><path id="_Path_" data-name=" Path " class="cls-1" d="M24.56,57.17A16.08,16.08,0,0,1,.38,43.28c0-8.87,3.84-15.35,7.65-22.7C13.72,9.65,15.82,5.72,16.36.64a11.47,11.47,0,0,1,2.25,7.65c-.27,3.05-2.25,8.5-4.76,14.51-2,4.84-4.33,9.78-5.53,13.64a17,17,0,0,0-.53,10A13.79,13.79,0,0,0,9.17,50c4.51,7.94,14.62,7.38,15.41,7.25Z" transform="translate(-0.38 -0.64)"/><path id="_Path_2" data-name=" Path 2" class="cls-1" d="M24.22,37.25a5.12,5.12,0,0,1,2.37,4.17,5,5,0,0,1-10,0,10,10,0,0,1,.1-1c.79-4.07,4.82-11.89,6.06-17,1.32-5.42-2.31-10.61-2.31-10.61s.86,1.93-4.39,13.72c-2.44,5.48-3.94,9-4.72,11.14a13.54,13.54,0,0,0-.82,4.8,11,11,0,1,0,22,0h0c0-6-5.21-9.77-8.32-11.63A3.56,3.56,0,0,1,22.36,28l-.8,2.56A5.35,5.35,0,0,0,23.84,37Z" transform="translate(-0.38 -0.64)"/><g id="_Compound_Path_" data-name=" Compound Path "><path class="cls-2" d="M41.81,11.54h0a.71.71,0,0,1,.71.71h0V24.4a1.31,1.31,0,0,0,.34,1,1.24,1.24,0,0,0,1,.35,2.5,2.5,0,0,0,.54-.07h0a.61.61,0,0,1,.72.46h0a.6.6,0,0,1-.45.71,2.71,2.71,0,0,1-.41.09,5.57,5.57,0,0,1-1,.11,2.14,2.14,0,0,1-1.56-.56,2.09,2.09,0,0,1-.57-1.56V12.26A.72.72,0,0,1,41.81,11.54Z" transform="translate(-0.38 -0.64)"/></g><g id="_Compound_Path_2" data-name=" Compound Path 2"><path class="cls-2" d="M47.8,12.93v-.67a.71.71,0,0,1,.7-.72h0a.72.72,0,0,1,.72.72h0v.67a.71.71,0,0,1-.71.71h0A.71.71,0,0,1,47.8,12.93Zm0,13.24V16.65a.71.71,0,0,1,.7-.72h0a.72.72,0,0,1,.72.72h0v9.52a.71.71,0,0,1-.71.71h0A.71.71,0,0,1,47.8,26.17Z" transform="translate(-0.38 -0.64)"/></g><g id="_Compound_Path_3" data-name=" Compound Path 3"><path class="cls-2" d="M58.52,25.85a.57.57,0,0,1-.34.72l-.42.17a6.38,6.38,0,0,1-.72.19,4.78,4.78,0,0,1-.84.08,2.89,2.89,0,0,1-.88-.13,2.11,2.11,0,0,1-.74-.39,1.9,1.9,0,0,1-.5-.66,2,2,0,0,1-.19-.92V17.07H53a.58.58,0,0,1-.57-.57h0a.58.58,0,0,1,.57-.57h.94V13a.71.71,0,0,1,.71-.71h0a.71.71,0,0,1,.71.71v3h2a.58.58,0,0,1,.57.57h0a.58.58,0,0,1-.57.57h-2v7.44a1.14,1.14,0,0,0,.43.89,1.5,1.5,0,0,0,.89.29,2.66,2.66,0,0,0,1.08-.2h0a.59.59,0,0,1,.77.32v0Z" transform="translate(-0.38 -0.64)"/></g><g id="_Compound_Path_4" data-name=" Compound Path 4"><path class="cls-2" d="M66.6,25.84a.58.58,0,0,1-.33.73l-.42.17a6.38,6.38,0,0,1-.72.19,4.78,4.78,0,0,1-.84.08,2.89,2.89,0,0,1-.88-.13,2,2,0,0,1-.73-.39,1.84,1.84,0,0,1-.51-.66,2,2,0,0,1-.19-.92V17.07H61a.58.58,0,0,1-.57-.57h0a.58.58,0,0,1,.57-.57h1V13a.71.71,0,0,1,.71-.71h0a.71.71,0,0,1,.71.71v3h2a.57.57,0,0,1,.56.57h0a.57.57,0,0,1-.56.57h-2v7.44a1.14,1.14,0,0,0,.43.89,1.5,1.5,0,0,0,.89.29,2.66,2.66,0,0,0,1.08-.2h0a.58.58,0,0,1,.76.3l0,.05Z" transform="translate(-0.38 -0.64)"/></g><g id="_Compound_Path_5" data-name=" Compound Path 5"><path class="cls-2" d="M70.39,11.54h0a.71.71,0,0,1,.71.71h0V24.4a1.31,1.31,0,0,0,.34,1,1.26,1.26,0,0,0,.94.35,2.51,2.51,0,0,0,.55-.07h0a.61.61,0,0,1,.71.46h0a.59.59,0,0,1-.44.71h0a3.15,3.15,0,0,1-.42.09,5.57,5.57,0,0,1-1,.11,2.11,2.11,0,0,1-1.55-.56,2.09,2.09,0,0,1-.57-1.56V12.26a.72.72,0,0,1,.72-.72Z" transform="translate(-0.38 -0.64)"/></g><g id="_Compound_Path_6" data-name=" Compound Path 6"><path class="cls-2" d="M81.1,27.09a5.27,5.27,0,0,1-3.93-1.69A5.73,5.73,0,0,1,76,23.58a5.92,5.92,0,0,1-.41-2.2A6,6,0,0,1,76,19.2a5.55,5.55,0,0,1,1.13-1.78,5.42,5.42,0,0,1,3.92-1.68,5.2,5.2,0,0,1,2.2.46A4.68,4.68,0,0,1,85,17.43a4.37,4.37,0,0,1,.37.48,2.58,2.58,0,0,1-2.15,4h-6.1a4.61,4.61,0,0,0,.41,1.63,4.44,4.44,0,0,0,.89,1.29,4.16,4.16,0,0,0,1.25.86,3.88,3.88,0,0,0,2.56.15,3.61,3.61,0,0,0,1-.4,3,3,0,0,0,.8-.62,2.79,2.79,0,0,0,.35-.42.59.59,0,0,1,.67-.26h0a.63.63,0,0,1,.47.74.58.58,0,0,1-.13.26,2.37,2.37,0,0,1-.29.34,4.74,4.74,0,0,1-1.07.87,5.08,5.08,0,0,1-1.34.56A5.32,5.32,0,0,1,81.1,27.09Zm2.09-6.26a1.41,1.41,0,0,0,1.23-2.14,3.61,3.61,0,0,0-.57-.72,4.32,4.32,0,0,0-1.24-.82,4.08,4.08,0,0,0-3,0,3.87,3.87,0,0,0-1.25.82,4,4,0,0,0-.86,1.26,4.69,4.69,0,0,0-.39,1.6Z" transform="translate(-0.38 -0.64)"/></g><g id="_Compound_Path_7" data-name=" Compound Path 7"><path class="cls-2" d="M47.2,47.06a4.49,4.49,0,0,1-2.39-.66,4.69,4.69,0,0,1-1.69-1.68V46.2a.65.65,0,0,1-.64.65h0a.64.64,0,0,1-.64-.64h0v-14a.71.71,0,0,1,.7-.72h0a.72.72,0,0,1,.72.72h0v6A6.22,6.22,0,0,1,45,36.39a4.24,4.24,0,0,1,2.4-.68,4.37,4.37,0,0,1,2.07.48A5,5,0,0,1,51,37.48a5.94,5.94,0,0,1,1,1.83,6.46,6.46,0,0,1,.35,2.09,6.07,6.07,0,0,1-.4,2.19,5.69,5.69,0,0,1-1.1,1.79,5,5,0,0,1-1.65,1.22A4.7,4.7,0,0,1,47.2,47.06Zm-.34-1.27a3.78,3.78,0,0,0,1.65-.36,4.31,4.31,0,0,0,1.28-1,4.75,4.75,0,0,0,1.15-3,4.91,4.91,0,0,0-.29-1.66,4.53,4.53,0,0,0-.8-1.42,3.75,3.75,0,0,0-1.24-1A3.32,3.32,0,0,0,47,37a3.18,3.18,0,0,0-1.22.22,4.2,4.2,0,0,0-1.05.6,4.72,4.72,0,0,0-.86.87,5,5,0,0,0-.63,1v3.4a2.22,2.22,0,0,0,.45,1.07,3.56,3.56,0,0,0,.88.85,4.29,4.29,0,0,0,1.11.56A3.68,3.68,0,0,0,46.86,45.79Z" transform="translate(-0.38 -0.64)"/></g><g id="_Compound_Path_8" data-name=" Compound Path 8"><path class="cls-2" d="M61.32,36.54a.7.7,0,0,1-.59.67A4.26,4.26,0,0,0,58.8,38a4,4,0,0,0-1.52,2v6.13a.69.69,0,0,1-.67.68h-.08a.67.67,0,0,1-.68-.68h0v-9.6a.67.67,0,0,1,.67-.67h0a.67.67,0,0,1,.67.67v2a4.91,4.91,0,0,1,1.64-2A3.81,3.81,0,0,1,60,36a4.21,4.21,0,0,1,.6-.11.68.68,0,0,1,.75.59v.07Z" transform="translate(-0.38 -0.64)"/></g><g id="_Compound_Path_9" data-name=" Compound Path 9"><path class="cls-2" d="M71.26,45a5,5,0,0,1-1.9,1.51,6,6,0,0,1-2.47.53,3.76,3.76,0,0,1-1.44-.27,3.59,3.59,0,0,1-1.16-.72,3.48,3.48,0,0,1-.77-1,3.41,3.41,0,0,1-.27-1.34,2.55,2.55,0,0,1,.34-1.32,3.21,3.21,0,0,1,.94-1A4.55,4.55,0,0,1,66,40.59a6.44,6.44,0,0,1,1.85-.24,9.68,9.68,0,0,1,1.7.15,8.16,8.16,0,0,1,1.54.42v-1a3.2,3.2,0,0,0-.82-2.3A3,3,0,0,0,68,36.78a4.62,4.62,0,0,0-1.72.34,7.35,7.35,0,0,0-1.32.65.53.53,0,0,1-.72-.16s0,0,0,0h0a.52.52,0,0,1,.18-.7,7,7,0,0,1,3.7-1.16,4.4,4.4,0,0,1,3.24,1.15,4.32,4.32,0,0,1,1.18,3.2v6.17a.64.64,0,0,1-.63.62h0a.64.64,0,0,1-.62-.63Zm-4,.94a4.92,4.92,0,0,0,2-.42,3.3,3.3,0,0,0,1.42-1.11A1.17,1.17,0,0,0,71,44a1,1,0,0,0,.1-.41V41.82a9.59,9.59,0,0,0-1.48-.42A8,8,0,0,0,68,41.26a4.36,4.36,0,0,0-2.46.63,1.9,1.9,0,0,0-.94,1.66,2,2,0,0,0,.2.94,2.36,2.36,0,0,0,1.37,1.28,2.72,2.72,0,0,0,1,.23Z" transform="translate(-0.38 -0.64)"/></g><g id="_Compound_Path_10" data-name=" Compound Path 10"><path class="cls-2" d="M117.43,45a5,5,0,0,1-1.91,1.51,5.79,5.79,0,0,1-2.46.53,3.76,3.76,0,0,1-1.44-.27,3.33,3.33,0,0,1-1.16-.72,3.19,3.19,0,0,1-.77-1.08,3.41,3.41,0,0,1-.27-1.34,2.55,2.55,0,0,1,.34-1.32,3.21,3.21,0,0,1,.94-1,4.61,4.61,0,0,1,1.45-.69,6.44,6.44,0,0,1,1.85-.24,9.68,9.68,0,0,1,1.7.15,8.16,8.16,0,0,1,1.54.42V40a3.2,3.2,0,0,0-.82-2.3,3,3,0,0,0-2.27-.85,4.68,4.68,0,0,0-1.73.34,7,7,0,0,0-1.31.65.54.54,0,0,1-.74-.18v0h0a.53.53,0,0,1,.19-.7,7,7,0,0,1,3.7-1.16,4.44,4.44,0,0,1,3.24,1.15,4.32,4.32,0,0,1,1.18,3.2v6.17a.64.64,0,0,1-.63.62h0a.64.64,0,0,1-.62-.63Zm-4,.94a4.92,4.92,0,0,0,2-.42,3.3,3.3,0,0,0,1.42-1.11,1.25,1.25,0,0,0,.28-.41,1,1,0,0,0,.1-.41V41.82a9.59,9.59,0,0,0-1.48-.42,8.26,8.26,0,0,0-1.57-.14,4.36,4.36,0,0,0-2.46.63,1.9,1.9,0,0,0-.94,1.66,2,2,0,0,0,.2.94,2.36,2.36,0,0,0,1.37,1.28,2.86,2.86,0,0,0,1,.23Z" transform="translate(-0.38 -0.64)"/></g><g id="_Compound_Path_11" data-name=" Compound Path 11"><path class="cls-2" d="M85.13,46.85h0a.72.72,0,0,1-.72-.72h0v-5.4a4.89,4.89,0,0,0-.64-2.8A2.13,2.13,0,0,0,81.89,37a3.11,3.11,0,0,0-1.21.24,4.52,4.52,0,0,0-1.12.66,4.86,4.86,0,0,0-.92,1,4.11,4.11,0,0,0-.57,1.24v6a.72.72,0,0,1-.72.72h0a.71.71,0,0,1-.71-.71h0V32.22a.71.71,0,0,1,.7-.72h0a.72.72,0,0,1,.72.72h0v6.16a5,5,0,0,1,1.8-2,4.71,4.71,0,0,1,2.5-.71A3.42,3.42,0,0,1,84,36a3,3,0,0,1,1,1,4.05,4.05,0,0,1,.61,1.49,8.9,8.9,0,0,1,.19,1.93v5.69A.71.71,0,0,1,85.13,46.85Z" transform="translate(-0.38 -0.64)"/></g><g id="_Compound_Path_12" data-name=" Compound Path 12"><path class="cls-2" d="M105.51,46.85h0a.71.71,0,0,1-.71-.71h0v-5.4a5.21,5.21,0,0,0-.61-2.82,2,2,0,0,0-1.81-.9,3.23,3.23,0,0,0-1.19.23,3.82,3.82,0,0,0-1,.65,4.7,4.7,0,0,0-.83,1,4.77,4.77,0,0,0-.54,1.27v6a.72.72,0,0,1-.72.72h0a.71.71,0,0,1-.71-.71h0v-5.4a5.28,5.28,0,0,0-.59-2.84A2,2,0,0,0,95,37a3.28,3.28,0,0,0-2.21.86,4.86,4.86,0,0,0-1.38,2.27v6a.72.72,0,0,1-.72.72h0a.71.71,0,0,1-.71-.71h0V36.55a.65.65,0,0,1,.65-.65h0a.65.65,0,0,1,.65.65h0v1.83a5.25,5.25,0,0,1,1.77-2,4.32,4.32,0,0,1,2.41-.7,3.16,3.16,0,0,1,2.22.77,3.42,3.42,0,0,1,1,2,4.68,4.68,0,0,1,4.22-2.81,3.41,3.41,0,0,1,1.57.33,2.67,2.67,0,0,1,1,1,4.43,4.43,0,0,1,.57,1.49,9.14,9.14,0,0,1,.18,1.95V46.1a.72.72,0,0,1-.69.75Z" transform="translate(-0.38 -0.64)"/></g><g class="cls-3"><g class="cls-3"><path class="cls-1" d="M42.18,57.84a.2.2,0,0,1-.06-.15V51.82a.21.21,0,0,1,.06-.16.2.2,0,0,1,.15-.06h2a2.65,2.65,0,0,1,2,.61A2.5,2.5,0,0,1,47,54c0,.17,0,.41,0,.7s0,.53,0,.71a3.35,3.35,0,0,1-.28,1.39,1.64,1.64,0,0,1-.8.8,3.53,3.53,0,0,1-1.46.26H42.33A.2.2,0,0,1,42.18,57.84Zm2.19-.7a2.24,2.24,0,0,0,1-.18,1,1,0,0,0,.53-.54,2.67,2.67,0,0,0,.18-1c0-.36,0-.59,0-.68s0-.32,0-.66a1.87,1.87,0,0,0-.42-1.31,1.81,1.81,0,0,0-1.32-.4H43v4.77Z" transform="translate(-0.38 -0.64)"/><path class="cls-1" d="M49.05,57.42a2.35,2.35,0,0,1-.61-1.56v-.61a2.35,2.35,0,0,1,.62-1.54,1.91,1.91,0,0,1,1.46-.58,2,2,0,0,1,1.55.63,2.59,2.59,0,0,1,.55,1.72v.15a.21.21,0,0,1-.21.21H49.3v.08a1.64,1.64,0,0,0,.35,1,1.06,1.06,0,0,0,.87.4,1.27,1.27,0,0,0,.68-.16,1.24,1.24,0,0,0,.39-.35.83.83,0,0,1,.12-.13l.15,0h.44a.21.21,0,0,1,.14,0,.19.19,0,0,1,.05.13.79.79,0,0,1-.25.48,2.1,2.1,0,0,1-.69.48,2.54,2.54,0,0,1-1,.2A2,2,0,0,1,49.05,57.42Zm2.71-2.2v0a1.47,1.47,0,0,0-.34-1,1.23,1.23,0,0,0-1.8,0,1.57,1.57,0,0,0-.32,1v0Z" transform="translate(-0.38 -0.64)"/><path class="cls-1" d="M54.71,57.79a1.74,1.74,0,0,1-.64-.47.74.74,0,0,1-.21-.43.16.16,0,0,1,.07-.14.24.24,0,0,1,.14,0h.4a.21.21,0,0,1,.16.09,1.93,1.93,0,0,0,.47.4,1.32,1.32,0,0,0,.68.14,1.45,1.45,0,0,0,.76-.18.57.57,0,0,0,.29-.51.51.51,0,0,0-.12-.35.91.91,0,0,0-.42-.25,8.27,8.27,0,0,0-.87-.23,2.3,2.3,0,0,1-1.11-.49,1.18,1.18,0,0,1-.12-1.49,1.42,1.42,0,0,1,.59-.51,2.25,2.25,0,0,1,.94-.19,2.23,2.23,0,0,1,1,.19,1.66,1.66,0,0,1,.61.44.76.76,0,0,1,.2.43.18.18,0,0,1-.06.14.2.2,0,0,1-.14.05h-.37a.2.2,0,0,1-.18-.09,3.28,3.28,0,0,0-.25-.26.85.85,0,0,0-.3-.17,1.37,1.37,0,0,0-.49-.07,1,1,0,0,0-.66.18.58.58,0,0,0-.24.48.47.47,0,0,0,.1.32.83.83,0,0,0,.38.24,6.78,6.78,0,0,0,.83.23,2.59,2.59,0,0,1,1.21.51,1.18,1.18,0,0,1,.35.86,1.19,1.19,0,0,1-.22.71,1.47,1.47,0,0,1-.66.49,2.73,2.73,0,0,1-1,.18A2.54,2.54,0,0,1,54.71,57.79Z" transform="translate(-0.38 -0.64)"/><path class="cls-1" d="M59.17,52.29a.2.2,0,0,1-.06-.15v-.49a.21.21,0,0,1,.21-.21h.57a.21.21,0,0,1,.21.21v.49a.21.21,0,0,1-.21.21h-.57A.2.2,0,0,1,59.17,52.29Zm.08,5.55a.2.2,0,0,1-.06-.15V53.43a.2.2,0,0,1,.06-.15.17.17,0,0,1,.14-.06h.44a.17.17,0,0,1,.14.06.2.2,0,0,1,.06.15v4.26a.2.2,0,0,1-.06.15.17.17,0,0,1-.14.06h-.44A.17.17,0,0,1,59.25,57.84Z" transform="translate(-0.38 -0.64)"/><path class="cls-1" d="M62.54,59.63a1.63,1.63,0,0,1-.64-.56,1.35,1.35,0,0,1-.2-.57.15.15,0,0,1,.06-.15.2.2,0,0,1,.14-.06h.44a.18.18,0,0,1,.13,0,.22.22,0,0,1,.09.15,1.23,1.23,0,0,0,.36.5,1.16,1.16,0,0,0,.77.21,1.43,1.43,0,0,0,1-.29,1.3,1.3,0,0,0,.31-1v-.61a1.62,1.62,0,0,1-.59.47,1.91,1.91,0,0,1-.86.18,1.7,1.7,0,0,1-1.42-.61,2.56,2.56,0,0,1-.5-1.54v-.5a2.56,2.56,0,0,1,.5-1.54,1.69,1.69,0,0,1,1.42-.62,1.76,1.76,0,0,1,1.48.69v-.38a.25.25,0,0,1,.06-.16.2.2,0,0,1,.15-.06h.41a.2.2,0,0,1,.15.06.21.21,0,0,1,.07.16V57.8a1.86,1.86,0,0,1-2.12,2.08A2.42,2.42,0,0,1,62.54,59.63Zm2.1-2.82a1.67,1.67,0,0,0,.34-1,2.47,2.47,0,0,0,0-.32,2.12,2.12,0,0,0,0-.3,1.76,1.76,0,0,0-.33-1,1.11,1.11,0,0,0-.94-.4,1,1,0,0,0-.92.4,1.81,1.81,0,0,0-.32,1v.48a1.86,1.86,0,0,0,.32,1,1.07,1.07,0,0,0,.92.4A1.11,1.11,0,0,0,64.64,56.81Z" transform="translate(-0.38 -0.64)"/><path class="cls-1" d="M67.7,57.84a.2.2,0,0,1-.06-.15V53.43a.2.2,0,0,1,.06-.15.2.2,0,0,1,.14-.06h.43a.2.2,0,0,1,.15.06.2.2,0,0,1,0,.15v.39a1.88,1.88,0,0,1,.62-.51,2,2,0,0,1,.89-.18,1.68,1.68,0,0,1,1.34.55,2.18,2.18,0,0,1,.48,1.48v2.53a.2.2,0,0,1,0,.15.2.2,0,0,1-.15.06h-.45a.21.21,0,0,1-.21-.21V55.2a1.42,1.42,0,0,0-.31-1,1.15,1.15,0,0,0-.89-.35,1.23,1.23,0,0,0-.91.35,1.41,1.41,0,0,0-.33,1v2.49a.21.21,0,0,1-.21.21h-.45A.2.2,0,0,1,67.7,57.84Z" transform="translate(-0.38 -0.64)"/><path class="cls-1" d="M76.68,57.81a1.53,1.53,0,0,1-.6-.49,1.23,1.23,0,0,1-.22-.69,1.19,1.19,0,0,1,.49-1,2.63,2.63,0,0,1,1.33-.5L79,55v-.26c0-.62-.35-.92-1-.92a1.18,1.18,0,0,0-.65.16,1.3,1.3,0,0,0-.38.4.23.23,0,0,1-.06.11.16.16,0,0,1-.12,0h-.38a.18.18,0,0,1-.14-.06.2.2,0,0,1-.06-.14.89.89,0,0,1,.2-.49,1.67,1.67,0,0,1,.6-.48,2.28,2.28,0,0,1,1-.2,1.94,1.94,0,0,1,1.45.47,1.69,1.69,0,0,1,.44,1.18v2.91a.21.21,0,0,1-.21.21h-.41a.21.21,0,0,1-.21-.21v-.38a1.48,1.48,0,0,1-.58.48,2.07,2.07,0,0,1-1,.2A1.89,1.89,0,0,1,76.68,57.81Zm2-.88a1.49,1.49,0,0,0,.37-1.1v-.25l-1,.15a2.36,2.36,0,0,0-1,.3.62.62,0,0,0-.33.54.62.62,0,0,0,.3.55,1.25,1.25,0,0,0,.7.2A1.27,1.27,0,0,0,78.65,56.93Z" transform="translate(-0.38 -0.64)"/><path class="cls-1" d="M82,57.45a2.16,2.16,0,0,1-.58-1.53V55.2A2.16,2.16,0,0,1,82,53.67a2,2,0,0,1,1.5-.54,2.42,2.42,0,0,1,1.1.23,1.68,1.68,0,0,1,.67.58,1.37,1.37,0,0,1,.24.68.17.17,0,0,1-.05.15.28.28,0,0,1-.16,0h-.43a.23.23,0,0,1-.13,0,.49.49,0,0,1-.09-.15,1.09,1.09,0,0,0-1.14-.8,1.16,1.16,0,0,0-.88.35,1.58,1.58,0,0,0-.36,1.06v.63a1.63,1.63,0,0,0,.35,1.06,1.18,1.18,0,0,0,.89.34,1.09,1.09,0,0,0,1.14-.8.49.49,0,0,1,.09-.15.17.17,0,0,1,.13,0h.43a.23.23,0,0,1,.16.06.17.17,0,0,1,.05.15,1.37,1.37,0,0,1-.24.68,1.72,1.72,0,0,1-.66.58A2.46,2.46,0,0,1,83.5,58,2,2,0,0,1,82,57.45Z" transform="translate(-0.38 -0.64)"/><path class="cls-1" d="M87.52,57.81a1.53,1.53,0,0,1-.6-.49,1.2,1.2,0,0,1,.27-1.66,2.63,2.63,0,0,1,1.33-.5L89.86,55v-.26c0-.62-.35-.92-1-.92a1.16,1.16,0,0,0-.65.16,1.19,1.19,0,0,0-.38.4.23.23,0,0,1-.07.11.14.14,0,0,1-.11,0h-.39a.21.21,0,0,1-.2-.2,1,1,0,0,1,.21-.49,1.67,1.67,0,0,1,.6-.48,2.27,2.27,0,0,1,1-.2,1.91,1.91,0,0,1,1.45.47,1.65,1.65,0,0,1,.44,1.18v2.91a.25.25,0,0,1,0,.15.2.2,0,0,1-.15.06h-.42a.2.2,0,0,1-.15-.06.25.25,0,0,1-.05-.15v-.38a1.64,1.64,0,0,1-.58.48,2.07,2.07,0,0,1-1,.2A1.86,1.86,0,0,1,87.52,57.81Zm2-.88a1.54,1.54,0,0,0,.37-1.1v-.25l-1,.15a2.47,2.47,0,0,0-1,.3.64.64,0,0,0,0,1.09,1.37,1.37,0,0,0,1.67-.19Z" transform="translate(-0.38 -0.64)"/><path class="cls-1" d="M92.75,57.38a2.59,2.59,0,0,1-.51-1.55v-.54a2.56,2.56,0,0,1,.51-1.54,1.68,1.68,0,0,1,1.41-.62,1.78,1.78,0,0,1,1.46.66V51.72a.21.21,0,0,1,.21-.21h.43a.2.2,0,0,1,.15.06.2.2,0,0,1,0,.15v6a.2.2,0,0,1,0,.15.2.2,0,0,1-.15.06h-.41a.2.2,0,0,1-.15-.06.25.25,0,0,1,0-.15v-.37a1.78,1.78,0,0,1-1.49.67A1.68,1.68,0,0,1,92.75,57.38Zm2.53-.53a1.7,1.7,0,0,0,.34-1c0-.07,0-.18,0-.35s0-.28,0-.35a1.51,1.51,0,0,0-.34-.92,1.13,1.13,0,0,0-.93-.4,1.05,1.05,0,0,0-.93.4,1.81,1.81,0,0,0-.32,1v.26c0,1.13.42,1.7,1.26,1.7A1.11,1.11,0,0,0,95.28,56.85Z" transform="translate(-0.38 -0.64)"/><path class="cls-1" d="M98.65,57.42A2.35,2.35,0,0,1,98,55.86v-.61a2.35,2.35,0,0,1,.62-1.54,1.89,1.89,0,0,1,1.46-.58,2,2,0,0,1,1.55.63,2.59,2.59,0,0,1,.54,1.72v.15a.2.2,0,0,1,0,.15.2.2,0,0,1-.15.06H98.89v.08a1.71,1.71,0,0,0,.36,1,1.06,1.06,0,0,0,.87.4,1.29,1.29,0,0,0,.68-.16,1.36,1.36,0,0,0,.39-.35.52.52,0,0,1,.12-.13l.15,0h.44a.23.23,0,0,1,.14,0,.19.19,0,0,1,0,.13.79.79,0,0,1-.25.48,2.1,2.1,0,0,1-.69.48,2.54,2.54,0,0,1-1,.2A2,2,0,0,1,98.65,57.42Zm2.71-2.2v0a1.47,1.47,0,0,0-.34-1,1.23,1.23,0,0,0-1.8,0,1.52,1.52,0,0,0-.33,1v0Z" transform="translate(-0.38 -0.64)"/></g><g class="cls-3"><path class="cls-1" d="M103.8,57.84a.25.25,0,0,1,0-.15V53.43a.25.25,0,0,1,0-.15.2.2,0,0,1,.15-.06h.41a.2.2,0,0,1,.15.06.25.25,0,0,1,0,.15v.31a1.56,1.56,0,0,1,1.31-.61,1.44,1.44,0,0,1,1.41.83,1.67,1.67,0,0,1,.61-.6,1.83,1.83,0,0,1,.9-.23,1.58,1.58,0,0,1,1.2.5,2.1,2.1,0,0,1,.47,1.46v2.6a.21.21,0,0,1-.21.21h-.42a.21.21,0,0,1-.21-.21V55.17a1.39,1.39,0,0,0-.29-1,1.06,1.06,0,0,0-1.5,0,1.41,1.41,0,0,0-.3,1v2.52a.21.21,0,0,1-.21.21h-.42a.21.21,0,0,1-.21-.21V55.17a1.39,1.39,0,0,0-.3-1,1,1,0,0,0-.76-.31,1,1,0,0,0-.73.31,1.35,1.35,0,0,0-.31,1v2.53a.21.21,0,0,1-.21.21H104A.2.2,0,0,1,103.8,57.84Z" transform="translate(-0.38 -0.64)"/></g><g class="cls-3"><path class="cls-1" d="M112.75,59.56a.17.17,0,0,1,0-.13.37.37,0,0,1,0-.16l.69-1.65-1.72-4.06a.54.54,0,0,1,0-.15.24.24,0,0,1,0-.14.22.22,0,0,1,.14-.05h.44a.22.22,0,0,1,.21.15l1.37,3.28,1.41-3.28a.22.22,0,0,1,.22-.15h.42a.22.22,0,0,1,.14.05.17.17,0,0,1,.05.13.66.66,0,0,1,0,.16l-2.56,5.9a.23.23,0,0,1-.22.15h-.42A.21.21,0,0,1,112.75,59.56Z" transform="translate(-0.38 -0.64)"/></g></g></svg>